<svg width="580" height="400" xmlns="http://www.w3.org/2000/svg">
 <!-- Created with Method Draw - http://github.com/duopixel/Method-Draw/ -->
 <g>
  <title>background</title>
  <rect fill="#fff" id="canvas_background" height="402" width="582" y="-1" x="-1"/>
  <g display="none" overflow="visible" y="0" x="0" height="100%" width="100%" id="canvasGrid">
   <rect fill="url(#gridpattern)" stroke-width="0" y="0" x="0" height="100%" width="100%"/>
  </g>
 </g>
 <g>
  <title>Layer 1</title>
  <rect rx="4" id="svg_1" height="74.210271" width="49.473514" y="46.316313" x="265.263238" stroke-width="1.5" stroke="#000" fill="#fff"/>
  <rect stroke="#000" id="svg_2" height="55.789283" width="41.578803" y="49.474197" x="269.210594" stroke-width="1.5" fill="#fff"/>
  <ellipse ry="4" rx="4" id="svg_3" cy="112.631875" cx="289.999994" fill-opacity="null" stroke-opacity="null" stroke-width="1.5" stroke="#000" fill="#fff"/>
  <text xml:space="preserve" text-anchor="start" font-family="Helvetica, Arial, sans-serif" font-size="12" id="svg_4" y="37.895289" x="274.546144" fill-opacity="null" stroke-opacity="null" stroke-width="0" stroke="#000" fill="#000000">Relay</text>
  <ellipse ry="24.210443" rx="37.368293" id="svg_5" cy="233.157777" cx="290.000005" fill-opacity="null" stroke-opacity="null" stroke-width="1.5" stroke="#000" fill="#fff"/>
  <text xml:space="preserve" text-anchor="start" font-family="Helvetica, Arial, sans-serif" font-size="12" id="svg_6" y="238.420917" x="270.82324" fill-opacity="null" stroke-opacity="null" stroke-width="0" stroke="#000" fill="#000000">Django</text>
  <rect rx="15" id="svg_7" height="47.368258" width="79.473411" y="310.789089" x="250.263286" fill-opacity="null" stroke-opacity="null" stroke-width="1.5" stroke="#000" fill="#fff"/>
  <text xml:space="preserve" text-anchor="start" font-family="Helvetica, Arial, sans-serif" font-size="12" id="svg_8" y="338.68373" x="270.168659" fill-opacity="null" stroke-opacity="null" stroke-width="0" stroke="#000" fill="#000000">Motech</text>
  <path stroke="#000" transform="rotate(89.98214721679688 289.9965515136719,164.8608856201172) " id="svg_9" d="m247.655005,164.766934c0.078699,-1.810102 -0.050356,-3.622623 0.647183,-5.429542c17.139851,0.594397 34.077549,1.566978 50.928579,2.441611c0.904635,-0.887566 0.478847,-1.623813 1.264842,-2.44443c10.825807,1.726804 21.553995,3.478198 31.842499,5.312992c-9.870821,2.081288 -21.19301,3.888744 -32.308364,5.739597c-0.35994,-0.861915 -0.719945,-1.723825 -1.07989,-2.58574c-16.382397,0.833863 -33.707327,1.695997 -50.195645,2.458308c-1.121285,-1.759001 -1.088328,-3.674604 -1.099204,-5.492797z" fill-opacity="null" stroke-opacity="null" stroke-width="1.5" fill="#fff"/>
  <path stroke="#000" transform="rotate(-90.31477355957031 307.4513244628906,283.54193115234375) " id="svg_10" d="m282.217737,283.447998c0.046901,-1.810102 -0.03001,-3.622624 0.385692,-5.429542c10.214552,0.594397 20.30863,1.566978 30.351058,2.441611c0.53912,-0.887566 0.28537,-1.623813 0.753787,-2.44443c6.451676,1.726804 12.845176,3.478199 18.976644,5.312993c-5.882549,2.081288 -12.630046,3.888744 -19.254278,5.739597c-0.214507,-0.861915 -0.429054,-1.723825 -0.643564,-2.58574c-9.763144,0.833863 -20.087995,1.695997 -29.914263,2.458308c-0.668233,-1.759001 -0.648592,-3.674605 -0.655074,-5.492797z" fill-opacity="null" stroke-opacity="null" stroke-width="1.5" fill="#fff"/>
  <path stroke="#000" transform="rotate(90.89201354980469 272.714599609375,283.01562499999994) " id="svg_11" d="m247.481016,282.921684c0.046902,-1.810102 -0.030009,-3.622624 0.385692,-5.429542c10.214551,0.594397 20.30863,1.566978 30.351058,2.441611c0.53912,-0.887566 0.285369,-1.623813 0.753786,-2.44443c6.451676,1.726804 12.845176,3.478199 18.976644,5.312993c-5.882549,2.081288 -12.630045,3.888744 -19.254278,5.739597c-0.214507,-0.861915 -0.429054,-1.723825 -0.643564,-2.58574c-9.763145,0.833863 -20.087995,1.695997 -29.914264,2.458308c-0.668233,-1.759001 -0.648592,-3.674605 -0.655074,-5.492797z" fill-opacity="null" stroke-opacity="null" stroke-width="1.5" fill="#fff"/>
  <path stroke="#000" transform="rotate(89.98214721679688 120.52378082275392,170.1238708496094) " id="svg_12" d="m79.234698,170.029929c0.076743,-1.810102 -0.049105,-3.622624 0.631097,-5.429542c16.713812,0.594397 33.230498,1.566978 49.662669,2.441611c0.882149,-0.887566 0.466944,-1.623812 1.233402,-2.444429c10.556715,1.726804 21.018237,3.478198 31.051004,5.312992c-9.625466,2.081288 -20.666224,3.888744 -31.505289,5.739597c-0.350993,-0.861915 -0.70205,-1.723824 -1.053048,-2.58574c-15.975187,0.833863 -32.869479,1.695997 -48.947953,2.458308c-1.093415,-1.759001 -1.061277,-3.674605 -1.071882,-5.492797z" fill-opacity="null" stroke-opacity="null" stroke-width="1.5" fill="#fff"/>
  <rect rx="10" id="svg_13" height="24.210443" width="75.262899" y="57.10575" x="340.789299" fill-opacity="null" stroke-opacity="null" stroke-width="1.5" stroke="#000" fill="#fff"/>
  <rect id="svg_14" height="0" width="0.526314" y="87.105647" x="592.893697" fill-opacity="null" stroke-opacity="null" stroke-width="1.5" stroke="#000" fill="#fff"/>
  <rect id="svg_15" height="0" width="0.526314" y="68.684657" x="601.31472" fill-opacity="null" stroke-opacity="null" stroke-width="1.5" stroke="#000" fill="#fff"/>
  <text xml:space="preserve" text-anchor="start" font-family="Helvetica, Arial, sans-serif" font-size="12" id="svg_16" y="72.895169" x="359.210288" fill-opacity="null" stroke-opacity="null" stroke-width="0" stroke="#000" fill="#000000">Consul</text>
  <path stroke="#000" transform="rotate(-71.79967498779297 328.2038879394532,146.1685638427735) " id="svg_19" d="m261.725183,146.074669c0.123562,-1.810102 -0.079063,-3.622624 1.016116,-5.429542c26.910552,0.594397 53.503715,1.566978 79.960803,2.441611c1.420329,-0.887566 0.751817,-1.623812 1.985874,-2.444429c16.997141,1.726804 33.841015,3.478198 49.994558,5.312992c-15.497757,2.081288 -33.274246,3.888744 -50.725993,5.739597c-0.565126,-0.861915 -1.130356,-1.723824 -1.69549,-2.58574c-25.721307,0.833863 -52.922446,1.695997 -78.810054,2.458308c-1.760484,-1.759001 -1.708739,-3.674605 -1.725814,-5.492797z" fill-opacity="null" stroke-opacity="null" stroke-width="1.5" fill="#fff"/>
  <rect rx="11" id="svg_20" height="39.473549" width="82.104981" y="102.368752" x="400.789093" fill-opacity="null" stroke-opacity="null" stroke-width="1.5" stroke="#000" fill="#fff"/>
  <text xml:space="preserve" text-anchor="start" font-family="Helvetica, Arial, sans-serif" font-size="12" id="svg_21" y="125.526568" x="418.157454" fill-opacity="null" stroke-opacity="null" stroke-width="0" stroke="#000" fill="#000000">Browsers</text>
  <path stroke="#000" transform="rotate(137.2801971435547 361.01123046875006,178.15620422363284) " id="svg_22" d="m306.580325,178.062282c0.10117,-1.810102 -0.064735,-3.622624 0.831968,-5.429542c22.033618,0.594397 43.807367,1.566978 65.469702,2.441611c1.162926,-0.887566 0.615567,-1.623812 1.625979,-2.444429c13.916791,1.726804 27.70809,3.478198 40.934167,5.312992c-12.689137,2.081288 -27.244036,3.888744 -41.533045,5.739597c-0.46271,-0.861915 -0.925504,-1.723824 -1.388221,-2.58574c-21.059897,0.833863 -43.33144,1.695997 -64.5275,2.458308c-1.441436,-1.759001 -1.399069,-3.674605 -1.41305,-5.492797z" fill-opacity="null" stroke-opacity="null" stroke-width="1.5" fill="#fff"/>
 </g>
</svg>